<?xml version="1.0" standalone="no"?>
<!DOCTYPE svg PUBLIC "-//W3C//DTD SVG 20010904//EN"
 "http://www.w3.org/TR/2001/REC-SVG-20010904/DTD/svg10.dtd">
<svg version="1.0" xmlns="http://www.w3.org/2000/svg"
 width="900.000000pt" height="900.000000pt" viewBox="0 0 900.000000 900.000000"
 preserveAspectRatio="xMidYMid meet">
<metadata>
Created by potrace 1.15, written by Peter Selinger 2001-2017
</metadata>
<g transform="translate(0.000000,900.000000) scale(0.100000,-0.100000)"
fill="#000000" stroke="none">
<path d="M1108 8873 c-146 -196 -274 -395 -412 -636 -16 -27 -65 -124 -111
-215 -303 -608 -482 -1222 -562 -1932 -26 -226 -26 -927 0 -1155 119 -1058
485 -1990 1104 -2810 748 -992 1797 -1706 2993 -2039 168 -47 342 -86 380 -86
38 0 212 39 380 86 1348 375 2506 1235 3256 2419 405 638 682 1374 799 2120
52 332 60 453 60 890 0 330 -4 442 -18 575 -61 547 -192 1070 -389 1552 -82
202 -265 568 -373 748 -168 278 -405 610 -436 610 -10 0 -71 -15 -137 -34
-498 -142 -1102 -217 -1627 -203 -512 15 -909 76 -1447 223 -66 18 -70 18
-135 0 -543 -148 -937 -208 -1448 -223 -525 -14 -1128 61 -1624 202 -67 19
-130 35 -140 35 -11 0 -53 -47 -113 -127z m264 68 c973 -266 1991 -266 2975 0
l153 42 152 -42 c955 -258 1931 -266 2878 -24 118 30 224 57 235 59 16 4 38
-20 111 -118 418 -564 713 -1166 903 -1839 78 -278 132 -557 171 -884 28 -229
39 -771 21 -1017 -120 -1638 -919 -3103 -2235 -4097 -415 -314 -931 -594
-1421 -773 -277 -101 -731 -228 -815 -228 -47 0 -426 96 -585 149 -518 170
-961 383 -1385 665 -1463 974 -2373 2533 -2501 4284 -17 241 -6 798 20 1016
126 1031 470 1904 1075 2724 49 67 93 122 97 122 4 0 72 -18 151 -39z"/>
<path d="M4445 8789 c-76 -23 -302 -79 -415 -103 -880 -181 -1782 -161 -2645
59 -119 31 -130 32 -142 17 -104 -136 -324 -490 -436 -702 -133 -253 -302
-658 -371 -889 l-15 -51 4079 0 4078 0 -20 68 c-96 320 -316 808 -517 1142
-78 129 -234 367 -284 432 -12 15 -23 14 -142 -17 -973 -248 -2010 -241 -2973
20 -138 37 -150 39 -197 24z m442 -554 c60 -30 100 -78 119 -143 22 -72 22
-72 -49 -72 l-63 0 -17 38 c-54 122 -248 44 -197 -78 8 -20 40 -47 94 -82 104
-66 181 -140 214 -203 22 -42 27 -63 27 -130 0 -70 -4 -87 -29 -133 -69 -125
-210 -175 -332 -118 -86 40 -154 143 -154 233 l0 33 64 0 64 0 7 -40 c4 -22
16 -51 28 -66 85 -109 249 -20 222 122 -9 49 -54 95 -170 175 -58 39 -113 85
-128 107 -70 102 -56 232 35 319 71 68 174 83 265 38z m-3119 -457 l2 -468
-70 0 -70 0 0 463 c0 255 3 467 7 471 4 4 34 6 68 4 l60 -3 3 -467z m391 350
c31 -68 88 -192 127 -276 l69 -153 3 276 2 276 68 -3 67 -3 3 -468 2 -468 -56
3 -56 3 -136 298 -137 298 -3 -301 -2 -300 -70 0 -70 0 0 470 0 470 66 0 65 0
58 -122z m941 57 l0 -65 -85 0 -85 0 0 -405 0 -405 -70 0 -70 0 0 405 0 405
-85 0 -85 0 0 58 c0 32 3 62 7 65 3 4 111 7 240 7 l233 0 0 -65z m570 -5 l0
-70 -150 0 -150 0 0 -115 0 -115 95 0 95 0 0 -65 0 -65 -95 0 -95 0 0 -155 0
-155 170 0 170 0 0 -65 0 -65 -240 0 -240 0 0 470 0 470 220 0 220 0 0 -70z
m571 48 c96 -41 144 -123 144 -243 -1 -89 -30 -155 -86 -192 -22 -14 -39 -31
-39 -37 0 -10 99 -355 120 -418 l9 -28 -72 0 -72 0 -61 218 -60 217 -62 3 -62
3 0 -221 0 -220 -70 0 -70 0 0 463 c0 255 3 467 8 471 13 15 333 0 373 -16z
m1337 -45 l3 -63 -86 0 -85 0 0 -405 0 -405 -70 0 -70 0 0 405 0 405 -85 0
-85 0 0 58 c0 32 3 62 7 66 4 3 110 5 237 4 l231 -3 3 -62z m422 45 c8 -20
230 -899 230 -913 0 -3 -30 -5 -68 -5 l-67 0 -23 88 c-12 48 -27 104 -33 125
l-10 37 -99 0 -100 0 -6 -27 c-9 -42 -34 -143 -45 -185 l-10 -38 -68 0 -69 0
115 458 c62 251 116 463 118 470 3 8 25 12 65 12 53 0 62 -3 70 -22z m760 -43
l0 -65 -85 0 -85 0 0 -405 0 -405 -65 0 -65 0 0 405 0 405 -85 0 -85 0 0 65 0
65 235 0 235 0 0 -65z m570 -5 l0 -70 -150 0 -150 0 0 -115 0 -115 95 0 95 0
0 -65 0 -65 -95 0 -95 0 0 -155 0 -155 170 0 170 0 0 -65 0 -65 -240 0 -240 0
0 470 0 470 220 0 220 0 0 -70z"/>
<path d="M4000 7995 l0 -117 101 4 c96 3 102 4 125 31 36 42 34 116 -5 159
-29 32 -31 33 -125 36 l-96 4 0 -117z"/>
<path d="M5897 7826 c-15 -62 -27 -116 -27 -120 0 -9 120 -7 120 2 1 19 -55
232 -60 232 -4 0 -18 -51 -33 -114z"/>
<path d="M363 6878 c-7 -29 -24 -103 -38 -165 -51 -225 -94 -517 -115 -792
-13 -174 -13 -609 0 -782 81 -1055 439 -2021 1058 -2859 296 -400 704 -811
1107 -1114 438 -331 941 -600 1465 -783 169 -59 448 -140 578 -168 78 -17 86
-17 165 0 129 28 408 108 577 168 775 271 1457 702 2045 1291 707 709 1186
1549 1431 2512 113 445 164 864 164 1344 0 451 -47 868 -144 1265 l-32 130
-4125 3 -4125 2 -11 -52z m4813 -142 c113 -75 142 -352 52 -486 -51 -75 -164
-99 -241 -51 -75 46 -120 200 -99 337 19 122 64 190 141 215 36 12 119 3 147
-15z m663 14 c39 -11 77 -43 97 -82 13 -26 13 -27 -21 -38 -30 -10 -38 -9 -65
12 -43 31 -105 31 -131 -1 -38 -47 -14 -78 87 -111 121 -39 164 -87 164 -181
0 -68 -35 -129 -87 -155 -44 -21 -136 -24 -173 -4 -35 17 -89 70 -105 101 -14
26 -13 27 27 42 38 16 42 15 54 -1 7 -9 14 -19 14 -22 1 -15 63 -40 98 -40 32
0 45 6 61 26 44 56 12 116 -76 144 -81 26 -132 61 -154 106 -60 125 65 246
210 204z m-2681 -282 l-3 -283 -42 -3 -43 -3 0 285 0 286 45 0 45 0 -2 -282z
m222 42 l0 -240 130 0 130 0 0 -45 0 -45 -175 0 -175 0 0 285 0 285 45 0 45 0
0 -240z m430 0 l0 -240 130 0 130 0 0 -45 0 -45 -172 2 -173 3 -3 283 -2 282
45 0 45 0 0 -240z m438 -42 l-3 -283 -45 0 -45 0 -3 270 c-1 148 0 275 3 282
2 8 22 13 50 13 l45 0 -2 -282z m321 105 l101 -178 0 178 0 177 45 0 45 0 0
-285 0 -285 -38 0 -38 0 -105 186 -104 186 -3 -186 -2 -186 -45 0 -45 0 0 285
0 285 44 0 44 0 101 -177z m929 -105 l-3 -283 -45 0 -45 0 -3 270 c-1 148 0
275 3 282 2 8 22 13 50 13 l45 0 -2 -282z m-1470 -765 l-3 -298 -786 -3 -786
-2 -6 -88 c-19 -275 -30 -503 -24 -508 3 -4 57 7 119 24 203 56 262 65 433 66
186 1 287 -16 435 -71 179 -67 306 -149 451 -293 153 -152 256 -316 318 -509
46 -142 56 -211 56 -401 -1 -255 -38 -410 -151 -630 -208 -403 -610 -680
-1123 -776 -115 -21 -458 -30 -587 -15 -211 25 -437 86 -602 162 l-83 38 30
53 c17 29 81 145 144 258 90 163 117 205 133 203 10 -1 64 -18 119 -37 190
-66 496 -100 694 -77 347 41 628 221 756 486 58 122 79 213 78 350 -1 140 -31
240 -104 349 -146 219 -391 329 -661 297 -174 -21 -291 -101 -442 -303 -32
-43 -63 -78 -68 -78 -10 0 -581 160 -586 164 -3 4 89 1909 94 1924 3 9 227 12
1079 12 l1075 0 -2 -297z m3382 1 l0 -297 -78 -96 c-139 -172 -221 -292 -339
-501 -175 -311 -317 -632 -437 -992 -163 -489 -229 -855 -252 -1405 l-7 -163
-300 0 -300 0 6 183 c20 549 111 1064 277 1557 145 432 375 925 611 1310 l59
95 -890 3 -890 2 0 300 0 300 1270 0 1270 0 0 -296z"/>
<path d="M5027 6642 c-33 -36 -47 -90 -47 -177 0 -127 33 -195 96 -195 49 0
63 9 85 53 46 88 31 283 -23 322 -31 21 -91 19 -111 -3z"/>
</g>
</svg>
