<?xml version="1.0" standalone="no"?>
<!DOCTYPE svg PUBLIC "-//W3C//DTD SVG 20010904//EN"
 "http://www.w3.org/TR/2001/REC-SVG-20010904/DTD/svg10.dtd">
<svg version="1.0" xmlns="http://www.w3.org/2000/svg"
 width="600.000000pt" height="198.000000pt" viewBox="0 0 600.000000 198.000000"
 preserveAspectRatio="xMidYMid meet">
<metadata>
Created by potrace 1.15, written by Peter Selinger 2001-2017
</metadata>
<g transform="translate(0.000000,198.000000) scale(0.100000,-0.100000)"
fill="#000000" stroke="none">
<path d="M1925 1969 c-60 -5 -185 -20 -277 -34 -237 -36 -392 -92 -783 -280
-88 -42 -184 -88 -213 -102 -42 -19 -103 -31 -268 -53 -247 -32 -251 -34 -278
-129 -19 -68 -35 -222 -36 -335 0 -68 -3 -82 -25 -107 -34 -41 -39 -85 -28
-208 8 -84 8 -110 -3 -125 -23 -33 11 -80 101 -140 49 -34 54 -35 380 -80 182
-25 351 -46 377 -46 l46 0 17 -49 c37 -111 136 -207 260 -252 49 -18 82 -22
175 -22 123 0 186 15 275 68 56 32 140 126 155 171 l12 37 89 -6 c82 -6 89 -5
103 14 l15 21 1128 -11 c786 -8 1144 -9 1182 -1 72 14 68 15 95 -29 85 -134
254 -221 429 -221 45 0 102 5 126 11 111 25 224 108 269 196 20 38 25 41 94
56 40 9 152 26 248 37 157 18 186 24 281 62 l106 42 8 125 c13 222 13 237 -12
263 -12 13 -25 37 -29 53 -10 43 -79 174 -114 217 -22 27 -51 45 -108 67 -201
77 -619 154 -1082 200 l-185 18 -120 70 c-188 110 -443 244 -650 341 -250 118
-354 142 -685 162 -196 12 -918 11 -1075 -1z m708 -303 c21 -121 36 -229 33
-241 -3 -13 -16 -25 -28 -29 -29 -7 -715 14 -748 23 -24 7 -25 13 -47 192 -30
251 -35 225 45 239 134 25 311 38 507 36 l200 -1 38 -219z m482 203 c244 -28
454 -112 677 -269 l92 -65 -35 -6 c-44 -7 -76 -25 -89 -49 -17 -31 -12 -85 11
-114 l21 -27 -23 5 c-13 3 -175 10 -359 16 -370 13 -445 20 -472 48 -15 15
-178 452 -178 478 0 8 228 -3 355 -17z m-1330 -71 c5 -31 45 -361 45 -373 0
-7 -158 -5 -302 4 -110 6 -119 9 -146 34 -41 40 -59 97 -42 137 14 33 85 87
180 135 46 24 230 92 252 94 4 1 10 -14 13 -31z m-1546 -396 c18 -14 42 -44
52 -67 22 -50 34 -164 25 -229 l-7 -46 -104 0 -104 0 4 28 c2 15 7 72 10 127
6 115 17 162 46 199 22 28 25 27 78 -12z m5544 -366 c41 -41 97 -131 87 -138
-3 -2 -96 -1 -206 2 l-201 5 34 72 c18 39 41 74 51 78 14 7 91 17 175 24 10 0
37 -19 60 -43z m-787 -240 c72 -33 137 -102 164 -174 30 -79 25 -195 -13 -268
-98 -193 -370 -233 -519 -77 -144 151 -115 398 60 500 99 58 208 65 308 19z
m-3543 -21 c156 -41 254 -173 245 -331 -6 -88 -35 -152 -98 -215 -141 -141
-394 -111 -497 59 -117 191 -24 429 190 487 68 18 91 18 160 0z"/>
</g>
</svg>
